<svg width="13" height="13" viewBox="0 0 13 13" fill="none" xmlns="http://www.w3.org/2000/svg">
<path d="M8.94444 6.5C8.94444 7.85001 7.85001 8.94444 6.5 8.94444C5.14997 8.94444 4.05556 7.85001 4.05556 6.5C4.05556 5.14997 5.14997 4.05556 6.5 4.05556C7.85001 4.05556 8.94444 5.14997 8.94444 6.5ZM8.94444 6.5V7.41667C8.94444 8.26043 9.62846 8.94444 10.4722 8.94444C11.316 8.94444 12 8.26043 12 7.41667V6.5C12 3.46244 9.53759 1 6.5 1C3.46244 1 1 3.46244 1 6.5C1 9.53759 3.46244 12 6.5 12H8.94444" stroke="black" stroke-linecap="round" stroke-linejoin="round"/>
</svg>
