<svg width="16" height="16" viewBox="0 0 16 16" fill="none" xmlns="http://www.w3.org/2000/svg">
<path d="M6.7898 0L5.82259 2.37406C5.62915 2.43392 5.45505 2.53367 5.28096 2.63342L2.979 1.63591L1.58622 3.07232L2.55343 5.44638C2.45671 5.64588 2.37933 5.80549 2.30196 6.00499L0 7.00249V8.99751L2.30196 9.99501C2.37933 10.1945 2.45671 10.3541 2.55343 10.5536L1.58622 12.9277L2.979 14.3641L5.28096 13.3666C5.45505 13.4464 5.62915 13.5461 5.82259 13.6259L6.7898 16H8.72422L9.69143 13.6259C9.86552 13.5461 10.059 13.4663 10.2331 13.3666L12.535 14.3641L13.9278 12.9277L12.9606 10.5536C13.038 10.3741 13.1347 10.1746 13.2121 9.99501L15.514 8.99751V7.00249L13.2121 6.00499C13.154 5.82544 13.0573 5.62594 12.9606 5.44638L13.9278 3.07232L12.535 1.63591L10.2331 2.63342C10.059 2.55362 9.86552 2.45387 9.69143 2.37406L8.72422 0L6.7898 0ZM7.75701 4.98753C9.36257 4.98753 10.6586 6.32419 10.6586 7.98005C10.6586 9.63591 9.36257 10.9726 7.75701 10.9726C6.15144 10.9726 4.85538 9.63591 4.85538 7.98005C4.85538 6.32419 6.15144 4.98753 7.75701 4.98753Z" fill="black"/>
</svg>
