<svg width="16" height="11" viewBox="0 0 16 11" fill="none" xmlns="http://www.w3.org/2000/svg">
<path d="M3.17057 5.39678L14.7191 5.39838M3.07511 5.71463L1.76549 8.66118C1.44906 9.37324 1.29078 9.72927 1.40528 9.94242C1.50463 10.1274 1.71576 10.2657 1.9735 10.3148C2.27048 10.3712 2.71967 10.2058 3.61805 9.87507L13.3387 6.29606C14.1215 6.00789 14.5129 5.86376 14.6377 5.66788C14.7463 5.49745 14.7463 5.29935 14.6377 5.12895C14.5129 4.93303 14.1215 4.78894 13.3387 4.50072L3.61801 0.921737C2.71965 0.590979 2.27047 0.4256 1.97347 0.48208C1.71573 0.531092 1.50465 0.669411 1.40533 0.854368C1.29085 1.06753 1.44905 1.42358 1.76556 2.13561L3.07509 5.08219C3.12726 5.19954 3.15336 5.25819 3.16368 5.31816C3.17287 5.37146 3.17287 5.42538 3.16368 5.47858C3.15336 5.53864 3.12726 5.59729 3.07511 5.71463Z" stroke="white" stroke-linecap="round" stroke-linejoin="round"/>
</svg>
