<svg width="30" height="17" viewBox="0 0 30 17" fill="none" xmlns="http://www.w3.org/2000/svg">
<path d="M9.375 0.25H20.625C25.6995 0.25 29.75 3.80882 29.75 8.125C29.75 12.4412 25.6995 16 20.625 16H9.375C4.30049 16 0.25 12.4412 0.25 8.125C0.25 3.80882 4.30049 0.25 9.375 0.25ZM20.625 11.125C18.6573 11.125 17.125 9.74935 17.125 8.125C17.125 6.50065 18.6573 5.125 20.625 5.125C22.5927 5.125 24.125 6.50065 24.125 8.125C24.125 9.74935 22.5927 11.125 20.625 11.125ZM20.625 3C17.4158 3 14.75 5.26273 14.75 8.125C14.75 10.9873 17.4158 13.25 20.625 13.25C23.8342 13.25 26.5 10.9873 26.5 8.125C26.5 5.26273 23.8342 3 20.625 3Z" fill="#37D747" stroke="#7B7B7B" stroke-width="0.5"/>
</svg>
