<?xml version="1.0" encoding="UTF-8"?>
<svg version="1.1" xmlns="http://www.w3.org/2000/svg" width="67" height="69">
<path d="M0 0 C22.11 0 44.22 0 67 0 C67 22.77 67 45.54 67 69 C44.89 69 22.78 69 0 69 C0 46.23 0 23.46 0 0 Z " fill="#FBFAFA" transform="translate(0,0)"/>
<path d="M0 0 C3.3 0 6.6 0 10 0 C9.90234375 2.5390625 9.8046875 5.078125 9.70703125 7.6171875 C9.80371094 8.40351563 9.90039062 9.18984375 10 10 C15.56251857 13.70834571 23.47992947 12.54589329 29.921875 11.546875 C31.96241005 11.09197865 33.98465268 10.55595788 36 10 C35.70567126 12.84517779 35.19624814 13.82953348 33.0078125 15.73046875 C28.89000876 17.4685028 25.29579246 17.40119969 20.875 17.3125 C20.06417969 17.31572266 19.25335938 17.31894531 18.41796875 17.32226562 C12.40135369 17.26756912 12.40135369 17.26756912 9 15 C9.49756092 17.75641416 9.49756092 17.75641416 11 20 C13.90708611 20.12768611 16.77989865 20.1852231 19.6875 20.1875 C20.8930957 20.20586914 20.8930957 20.20586914 22.12304688 20.22460938 C26.82115993 20.23613377 30.58199814 19.80574228 35 18 C34.4375 20.875 34.4375 20.875 33 24 C28.31563046 26.02070843 24.05523458 26.20633611 19 26 C19 26.66 19 27.32 19 28 C19.99 28 20.98 28 22 28 C22 30.97 22 33.94 22 37 C22.66 37 23.32 37 24 37 C24.66 34.03 25.32 31.06 26 28 C27.65 28.33 29.3 28.66 31 29 C31.50512244 30.60256108 32.00391627 32.20711792 32.5 33.8125 C32.7784375 34.70582031 33.056875 35.59914062 33.34375 36.51953125 C34.02589929 39.09789316 34 41.35087483 34 44 C34.66 44 35.32 44 36 44 C36 44.66 36 45.32 36 46 C33.69 46 31.38 46 29 46 C29 46.99 29 47.98 29 49 C32 50.33333333 32 50.33333333 35 49 C35.66 49 36.32 49 37 49 C37.66 47.68 38.32 46.36 39 45 C39.66 45 40.32 45 41 45 C40.67 47.64 40.34 50.28 40 53 C35.05 53 30.1 53 25 53 C24.67 54.32 24.34 55.64 24 57 C23.34 57 22.68 57 22 57 C22 56.01 22 55.02 22 54 C18.50066227 52.83355409 15.67515027 52.93552368 12 53 C8 53 4 53 0 53 C-1.0070238 47.96488101 -0.97387813 44.76052962 1 40 C2.98 40 4.96 40 7 40 C6.175 39.67 5.35 39.34 4.5 39 C2 37 2 37 1.66796875 35.01953125 C1.68575178 33.01004942 1.83583249 31.0028436 2 29 C1.34 29 0.68 29 0 29 C0 28.34 0 27.68 0 27 C3.96 27 7.92 27 12 27 C12 26.34 12 25.68 12 25 C11.0409375 24.5359375 11.0409375 24.5359375 10.0625 24.0625 C8 23 8 23 7 22 C4.32941149 21.85884839 1.67567762 21.95752893 -1 22 C-1.33 20.68 -1.66 19.36 -2 18 C-1.01 18.33 -0.02 18.66 1 19 C1 18.34 1 17.68 1 17 C0.34 17 -0.32 17 -1 17 C-1 14.69 -1 12.38 -1 10 C-0.01 10.33 0.98 10.66 2 11 C2 10.34 2 9.68 2 9 C1.34 9 0.68 9 0 9 C0 6.03 0 3.06 0 0 Z " fill="#C9C9C9" transform="translate(16,4)"/>
<path d="M0 0 C3.3 0 6.6 0 10 0 C9.90234375 2.5390625 9.8046875 5.078125 9.70703125 7.6171875 C9.80371094 8.40351563 9.90039062 9.18984375 10 10 C15.56251857 13.70834571 23.47992947 12.54589329 29.921875 11.546875 C31.96241005 11.09197865 33.98465268 10.55595788 36 10 C35.70567126 12.84517779 35.19624814 13.82953348 33.0078125 15.73046875 C28.89000876 17.4685028 25.29579246 17.40119969 20.875 17.3125 C20.06417969 17.31572266 19.25335938 17.31894531 18.41796875 17.32226562 C12.40135369 17.26756912 12.40135369 17.26756912 9 15 C9.49756092 17.75641416 9.49756092 17.75641416 11 20 C13.90708611 20.12768611 16.77989865 20.1852231 19.6875 20.1875 C20.8930957 20.20586914 20.8930957 20.20586914 22.12304688 20.22460938 C26.82115993 20.23613377 30.58199814 19.80574228 35 18 C34.4375 20.875 34.4375 20.875 33 24 C26.67344654 27.02574296 17.8901036 27.26345245 11.2578125 25.109375 C9 24 9 24 7 22 C4.31160615 21.73008094 1.70858064 21.91262643 -1 22 C-1.33 20.68 -1.66 19.36 -2 18 C-1.01 18.33 -0.02 18.66 1 19 C1 18.34 1 17.68 1 17 C0.34 17 -0.32 17 -1 17 C-1 14.69 -1 12.38 -1 10 C-0.01 10.33 0.98 10.66 2 11 C2 10.34 2 9.68 2 9 C1.34 9 0.68 9 0 9 C0 6.03 0 3.06 0 0 Z " fill="#162450" transform="translate(16,4)"/>
<path d="M0 0 C0 0.66 0 1.32 0 2 C0.66 2.33 1.32 2.66 2 3 C1 6 1 6 -1.1875 7.125 C-8.48110251 9.39412078 -16.98411221 10.62110337 -24 7 C-24 6.01 -24 5.02 -24 4 C-23.34 4 -22.68 4 -22 4 C-22 3.34 -22 2.68 -22 2 C-20.64455078 1.90912109 -20.64455078 1.90912109 -19.26171875 1.81640625 C-17.49248047 1.69072266 -17.49248047 1.69072266 -15.6875 1.5625 C-14.51574219 1.48128906 -13.34398437 1.40007813 -12.13671875 1.31640625 C-7.89191177 0.88822522 -4.34392878 -0.09653175 0 0 Z " fill="#CD454A" transform="translate(50,4)"/>
<path d="M0 0 C3.3 0 6.6 0 10 0 C10.33 1.32 10.66 2.64 11 4 C11.66 4 12.32 4 13 4 C13 4.66 13 5.32 13 6 C10.69 6 8.38 6 6 6 C6 6.99 6 7.98 6 9 C9 10.33333333 9 10.33333333 12 9 C12.66 9 13.32 9 14 9 C14.66 7.68 15.32 6.36 16 5 C16.66 5 17.32 5 18 5 C17.67 7.64 17.34 10.28 17 13 C12.05 13 7.1 13 2 13 C1.67 14.32 1.34 15.64 1 17 C0.34 17 -0.32 17 -1 17 C-1 16.01 -1 15.02 -1 14 C-4.1964086 12.93453047 -6.65747276 12.92572162 -10 13 C-9.67 12.01 -9.34 11.02 -9 10 C-9 10.66 -9 11.32 -9 12 C-8.2575 11.690625 -7.515 11.38125 -6.75 11.0625 C-3.79173987 9.91953586 -1.18065015 9 2 9 C2.33 8.01 2.66 7.02 3 6 C2.01 5.67 1.02 5.34 0 5 C0 3.35 0 1.7 0 0 Z " fill="#585858" transform="translate(39,44)"/>
<path d="M0 0 C1 2 1 2 0.5 4 C-1.288804 6.38507199 -2.86303752 7.01189118 -5.734375 7.6875 C-12.20693825 8.58026734 -19.08044613 9.11332529 -25 6 C-25.8125 3.375 -25.8125 3.375 -26 1 C-25.01 1.33 -24.02 1.66 -23 2 C-20.04555573 2.22427843 -17.08711128 2.18514538 -14.125 2.1875 C-13.32191406 2.19974609 -12.51882812 2.21199219 -11.69140625 2.22460938 C-7.33774351 2.23536801 -3.9650101 2.03066307 0 0 Z " fill="#C93237" transform="translate(50,22)"/>
<path d="M0 0 C0.66 0 1.32 0 2 0 C2 1.32 2 2.64 2 4 C3.32 4.33 4.64 4.66 6 5 C5.67 7.31 5.34 9.62 5 12 C4.34 11.67 3.68 11.34 3 11 C2.01 11.33 1.02 11.66 0 12 C-1.39439664 12.06665376 -2.79169875 12.08538199 -4.1875 12.0625 C-6.0746875 12.0315625 -6.0746875 12.0315625 -8 12 C-8.625 8.625 -8.625 8.625 -9 5 C-8.34 4.34 -7.68 3.68 -7 3 C-6.34 3.33 -5.68 3.66 -5 4 C-4.67 3.34 -4.34 2.68 -4 2 C-4 2.66 -4 3.32 -4 4 C-3.01 3.67 -2.02 3.34 -1 3 C-0.67 2.01 -0.34 1.02 0 0 Z " fill="#E7E7E7" transform="translate(24,45)"/>
<path d="M0 0 C-0.29208162 2.82345571 -0.75158859 3.79715518 -2.98046875 5.6171875 C-7.10550653 7.50627337 -10.6458326 7.40237094 -15.125 7.3125 C-15.93582031 7.31572266 -16.74664062 7.31894531 -17.58203125 7.32226562 C-23.59864631 7.26756912 -23.59864631 7.26756912 -27 5 C-27 3.68 -27 2.36 -27 1 C-26.48179688 1.16113281 -25.96359375 1.32226562 -25.4296875 1.48828125 C-22.29526015 2.14842592 -19.3274279 2.17028265 -16.125 2.1875 C-14.33449219 2.20876953 -14.33449219 2.20876953 -12.5078125 2.23046875 C-8.09490945 1.94053414 -4.37677552 0 0 0 Z " fill="#C6242A" transform="translate(52,14)"/>
<path d="M0 0 C3.3 0 6.6 0 10 0 C10.18827652 7.34278418 9.73381947 13.86347522 8 21 C7.01 21 6.02 21 5 21 C4.67 20.01 4.34 19.02 4 18 C4.99 18 5.98 18 7 18 C7 16.02 7 14.04 7 12 C6.34 12 5.68 12 5 12 C5 11.01 5 10.02 5 9 C4.34 8.67 3.68 8.34 3 8 C3 6.68 3 5.36 3 4 C2.01 4 1.02 4 0 4 C0 2.68 0 1.36 0 0 Z " fill="#29345B" transform="translate(16,4)"/>
<path d="M0 0 C3.96 0 7.92 0 12 0 C11.125 8.875 11.125 8.875 10 10 C6.5 10.125 6.5 10.125 3 10 C2 9 2 9 1.90234375 7.15234375 C1.93489583 5.1015625 1.96744792 3.05078125 2 1 C1.34 0.67 0.68 0.34 0 0 Z " fill="#191919" transform="translate(16,32)"/>
<path d="M0 0 C6.6 0 13.2 0 20 0 C20 1.65 20 3.3 20 5 C19.34 5 18.68 5 18 5 C18 3.68 18 2.36 18 1 C17.01 1.495 17.01 1.495 16 2 C16 2.99 16 3.98 16 5 C13.69 5 11.38 5 9 5 C9 3.68 9 2.36 9 1 C8.34 1 7.68 1 7 1 C6.67 2.32 6.34 3.64 6 5 C4.02 5 2.04 5 0 5 C0 3.35 0 1.7 0 0 Z " fill="#4D4D4D" transform="translate(17,44)"/>
<path d="M0 0 C3.3 0 6.6 0 10 0 C10.33 1.32 10.66 2.64 11 4 C11.66 4 12.32 4 13 4 C13 4.66 13 5.32 13 6 C10.69 6 8.38 6 6 6 C6.33 7.98 6.66 9.96 7 12 C6.01 12 5.02 12 4 12 C3.34 9.69 2.68 7.38 2 5 C1.34 5 0.68 5 0 5 C0 3.35 0 1.7 0 0 Z " fill="#656565" transform="translate(39,44)"/>
<path d="M0 0 C2.64 0 5.28 0 8 0 C8.02689216 1.47906892 8.04634621 2.95827483 8.0625 4.4375 C8.07410156 5.26121094 8.08570313 6.08492187 8.09765625 6.93359375 C8 9 8 9 7 10 C4.32941149 10.14115161 1.67567762 10.04247107 -1 10 C-1 9.01 -1 8.02 -1 7 C0.98 7.66 2.96 8.32 5 9 C3.60804085 6.2160817 1.84424221 6.02101003 -1 5 C-0.67 3.35 -0.34 1.7 0 0 Z " fill="#353535" transform="translate(30,32)"/>
<path d="M0 0 C1.65 0.33 3.3 0.66 5 1 C5.99 3.97 6.98 6.94 8 10 C6.35 10 4.7 10 3 10 C3 9.34 3 8.68 3 8 C2.01 7.67 1.02 7.34 0 7 C0.33 7.99 0.66 8.98 1 10 C-0.32 9.67 -1.64 9.34 -3 9 C-2.01 6.03 -1.02 3.06 0 0 Z " fill="#151515" transform="translate(42,32)"/>
<path d="M0 0 C1.5625 1.6875 1.5625 1.6875 3 4 C2.6875 6.75 2.6875 6.75 2 9 C1.67 8.01 1.34 7.02 1 6 C-0.32 6.99 -1.64 7.98 -3 9 C-3.33 8.34 -3.66 7.68 -4 7 C-4.66 7.66 -5.32 8.32 -6 9 C-7.32 9 -8.64 9 -10 9 C-9.67 7.35 -9.34 5.7 -9 4 C-4.545 3.505 -4.545 3.505 0 3 C0 2.01 0 1.02 0 0 Z " fill="#F0F0F0" transform="translate(40,47)"/>
<path d="M0 0 C0 0.66 0 1.32 0 2 C-1.32 2 -2.64 2 -4 2 C-4.66 4.97 -5.32 7.94 -6 11 C-6.66 11 -7.32 11 -8 11 C-8.84454356 7.62182575 -9.10844919 5.32534757 -8 2 C-8.99 2 -9.98 2 -11 2 C-11 1.34 -11 0.68 -11 0 C-3.57142857 -1.28571429 -3.57142857 -1.28571429 0 0 Z " fill="#F2EFEF" transform="translate(46,30)"/>
<path d="M0 0 C1.32 0.33 2.64 0.66 4 1 C4.23268915 7.28260706 3.40454548 12.88019467 2 19 C1.01 19 0.02 19 -1 19 C-1.33 18.01 -1.66 17.02 -2 16 C-1.01 16 -0.02 16 1 16 C1 14.02 1 12.04 1 10 C0.34 10 -0.32 10 -1 10 C-1 9.34 -1 8.68 -1 8 C-0.01 8 0.98 8 2 8 C2 6.35 2 4.7 2 3 C1.34 3 0.68 3 0 3 C0 2.01 0 1.02 0 0 Z " fill="#7D778E" transform="translate(22,6)"/>
<path d="M0 0 C1.8871875 0.0309375 1.8871875 0.0309375 3.8125 0.0625 C4.1425 1.0525 4.4725 2.0425 4.8125 3.0625 C1.50179162 4.06359515 -1.48834769 4.16606134 -4.9375 4.125 C-5.92234375 4.11597656 -6.9071875 4.10695313 -7.921875 4.09765625 C-8.66953125 4.08605469 -9.4171875 4.07445312 -10.1875 4.0625 C-7.08842497 0.66827497 -4.52992189 -0.07426101 0 0 Z " fill="#C93137" transform="translate(38.1875,0.9375)"/>
<path d="M0 0 C2.31 0.33 4.62 0.66 7 1 C7 1.66 7 2.32 7 3 C5.35 3.33 3.7 3.66 2 4 C2 5.65 2 7.3 2 9 C1.34 9 0.68 9 0 9 C-0.33 9.99 -0.66 10.98 -1 12 C-1 9.36 -1 6.72 -1 4 C-4.63 3.67 -8.26 3.34 -12 3 C-12 2.67 -12 2.34 -12 2 C-8.04 2 -4.08 2 0 2 C0 1.34 0 0.68 0 0 Z " fill="#DAD8D8" transform="translate(28,29)"/>
<path d="M0 0 C0.66 0 1.32 0 2 0 C2.33 1.32 2.66 2.64 3 4 C3.33 3.67 3.66 3.34 4 3 C6.33297433 2.95907063 8.66705225 2.95758277 11 3 C11.33 3.99 11.66 4.98 12 6 C9.24921116 6.91692961 7.64051087 7.10886083 4.8125 7.0625 C2.9253125 7.0315625 2.9253125 7.0315625 1 7 C0.67 4.69 0.34 2.38 0 0 Z " fill="#5F5F5F" transform="translate(15,50)"/>
<path d="M0 0 C0 0.66 0 1.32 0 2 C-3.75399798 3.2039337 -7.33217412 3.09877617 -11.25 3.0625 C-12.51328125 3.05347656 -13.7765625 3.04445313 -15.078125 3.03515625 C-16.04234375 3.02355469 -17.0065625 3.01195312 -18 3 C-18 2.34 -18 1.68 -18 1 C-15.93769732 0.8309093 -13.8751477 0.66482867 -11.8125 0.5 C-10.08966797 0.36078125 -10.08966797 0.36078125 -8.33203125 0.21875 C-5.53927574 0.0354038 -2.79680188 -0.04213637 0 0 Z " fill="#C72B30" transform="translate(46,5)"/>
<path d="M0 0 C0.66 0 1.32 0 2 0 C2 1.32 2 2.64 2 4 C3.32 3.67 4.64 3.34 6 3 C6.33 3.66 6.66 4.32 7 5 C5.35 5 3.7 5 2 5 C1.67 5.66 1.34 6.32 1 7 C0.01 6.67 -0.98 6.34 -2 6 C-1.67 6.99 -1.34 7.98 -1 9 C-1.66 9 -2.32 9 -3 9 C-3 7.68 -3 6.36 -3 5 C-3.66 4.67 -4.32 4.34 -5 4 C-4.0409375 3.8453125 -4.0409375 3.8453125 -3.0625 3.6875 C-2.381875 3.460625 -1.70125 3.23375 -1 3 C-0.67 2.01 -0.34 1.02 0 0 Z " fill="#A8A8A8" transform="translate(33,45)"/>
<path d="M0 0 C1.32 0 2.64 0 4 0 C4 2.31 4 4.62 4 7 C2.68 7 1.36 7 0 7 C0 4.69 0 2.38 0 0 Z " fill="#EEEEEE" transform="translate(21,33)"/>
<path d="M0 0 C3 3.625 3 3.625 3 7 C2.01 7 1.02 7 0 7 C0.33 7.99 0.66 8.98 1 10 C-0.32 9.67 -1.64 9.34 -3 9 C-2.01 6.03 -1.02 3.06 0 0 Z " fill="#383838" transform="translate(42,32)"/>
<path d="M0 0 C0.66 0 1.32 0 2 0 C1.67 2.64 1.34 5.28 1 8 C-0.98 8 -2.96 8 -5 8 C-5.33 7.34 -5.66 6.68 -6 6 C-5.38125 5.7525 -4.7625 5.505 -4.125 5.25 C-1.64931313 3.79371361 -1.04874998 2.62187494 0 0 Z " fill="#717171" transform="translate(55,49)"/>
<path d="M0 0 C1.98 0 3.96 0 6 0 C6.33 0.99 6.66 1.98 7 3 C4.83125748 2.49396008 3.00032373 2.00016187 1 1 C1 1.99 1 2.98 1 4 C-1.25 5.125 -1.25 5.125 -4 6 C-6.3125 5.125 -6.3125 5.125 -8 4 C-5.36 3.67 -2.72 3.34 0 3 C0 2.01 0 1.02 0 0 Z " fill="#C6C6C6" transform="translate(28,38)"/>
<path d="M0 0 C1.65 0 3.3 0 5 0 C5.33 1.32 5.66 2.64 6 4 C3.92446352 4.5534764 2.15634036 5 0 5 C0 3.35 0 1.7 0 0 Z " fill="#535353" transform="translate(17,44)"/>
<path d="M0 0 C1.98 0.495 1.98 0.495 4 1 C4 1.66 4 2.32 4 3 C4.66 3 5.32 3 6 3 C6 3.66 6 4.32 6 5 C3.69 5 1.38 5 -1 5 C-0.67 3.35 -0.34 1.7 0 0 Z " fill="#9F9F9F" transform="translate(46,45)"/>
<path d="M0 0 C3.3 0 6.6 0 10 0 C10 0.66 10 1.32 10 2 C6.7 2.33 3.4 2.66 0 3 C0 2.01 0 1.02 0 0 Z " fill="#DEDEDE" transform="translate(27,42)"/>
<path d="M0 0 C0.99 0 1.98 0 3 0 C3 1.32 3 2.64 3 4 C3.99 4.33 4.98 4.66 6 5 C5.34 5.66 4.68 6.32 4 7 C2.68 6.34 1.36 5.68 0 5 C0 3.35 0 1.7 0 0 Z " fill="#041544" transform="translate(16,8)"/>
<path d="M0 0 C1.98 0.495 1.98 0.495 4 1 C4 1.99 4 2.98 4 4 C2.35 4.33 0.7 4.66 -1 5 C-0.67 3.35 -0.34 1.7 0 0 Z " fill="#D8D8D8" transform="translate(31,51)"/>
</svg>
