<svg width="53" height="26" viewBox="0 0 53 26" fill="none" xmlns="http://www.w3.org/2000/svg">
<path d="M16.1858 2H9.9795C9.24501 2 8.64958 2.59543 8.64958 3.32992V22.8354C8.64958 23.5699 9.24501 24.1653 9.9795 24.1653H16.1858C16.9203 24.1653 17.5157 23.5699 17.5157 22.8354V3.32992C17.5157 2.59543 16.9203 2 16.1858 2Z" fill="white" stroke="white" stroke-width="3.32479" stroke-linecap="round" stroke-linejoin="round"/>
<path d="M42.7841 2H36.5778C35.8433 2 35.2479 2.59543 35.2479 3.32992V22.8354C35.2479 23.5699 35.8433 24.1653 36.5778 24.1653H42.7841C43.5186 24.1653 44.114 23.5699 44.114 22.8354V3.32992C44.114 2.59543 43.5186 2 42.7841 2Z" fill="white" stroke="white" stroke-width="3.32479" stroke-linecap="round" stroke-linejoin="round"/>
<path d="M2 18.4023V7.76302C2 7.02853 2.59543 6.43311 3.32992 6.43311H7.31966C8.05415 6.43311 8.64958 7.02853 8.64958 7.76302V18.4023C8.64958 19.1369 8.05415 19.7323 7.31966 19.7323H3.32992C2.59543 19.7323 2 19.1369 2 18.4023Z" fill="white" stroke="white" stroke-width="3.32479" stroke-linecap="round" stroke-linejoin="round"/>
<path d="M50.7636 18.4023V7.76302C50.7636 7.02853 50.1682 6.43311 49.4337 6.43311H45.4439C44.7094 6.43311 44.114 7.02853 44.114 7.76302V18.4023C44.114 19.1369 44.7094 19.7323 45.4439 19.7323H49.4337C50.1682 19.7323 50.7636 19.1369 50.7636 18.4023Z" fill="white" stroke="white" stroke-width="3.32479" stroke-linecap="round" stroke-linejoin="round"/>
<path d="M17.5157 13.0825H35.2479H17.5157Z" fill="white"/>
<path d="M17.5157 13.0825H35.2479" stroke="white" stroke-width="3.32479" stroke-linecap="round" stroke-linejoin="round"/>
</svg>
